<svg xmlns="http://www.w3.org/2000/svg" xmlns:xlink="http://www.w3.org/1999/xlink">
    <symbol id="icon-search" viewBox="0 0 18 18">
        <path d="M15.645,17.6l-4.154-4.154a7.365,7.365,0,1,1,1.951-1.951L17.6,15.645A1.38,1.38,0,0,1,15.645,17.6ZM2.759,7.358a4.6,4.6,0,1,0,4.6-4.6A4.6,4.6,0,0,0,2.759,7.358Z"/>
    </symbol>

    <symbol id="icon-cancel" viewBox="0 0 16 16">
        <path d="M8,16a8,8,0,1,1,8-8A8.009,8.009,0,0,1,8,16ZM8,9.616H8l2.424,2.423,1.616-1.617L9.615,8,12.04,5.575,10.424,3.959,8,6.383,5.575,3.959,3.959,5.575,6.383,8,3.959,10.423,5.575,12.04,8,9.617Z"/>
    </symbol>

    <symbol id="icon-calendar" viewBox="0 0 18 17.07">
        <path d="M16.49,1.71h-.96V2.82h-.62V.25H13.35V1.71H4.65V2.82H4.03V.25H2.47V1.71H1.51A1.509,1.509,0,0,0,0,3.22V15.53a1.788,1.788,0,0,0,1.79,1.79H16.21A1.788,1.788,0,0,0,18,15.53V3.22A1.509,1.509,0,0,0,16.49,1.71Zm.14,13.58a.527.527,0,0,1-.53.53H1.9a.527.527,0,0,1-.53-.53V5.35a.534.534,0,0,1,.53-.53H16.1a.534.534,0,0,1,.53.53Z" transform="translate(0 -.25)"/><path d="M0 0H3.62V2.4H0z" transform="translate(2.8 6.085)"/><path d="M0 0H2.62V0.4H0z" transform="translate(7.9 7.085)"/><path d="M0 0H2.62V0.4H0z" transform="translate(3.5 13.085)"/><path d="M0 0H2.62V0.4H0z" transform="translate(12.3 7.085)"/><path d="M0 0H2.62V0.4H0z" transform="translate(7.9 13.085)"/><path d="M0 0H3.62V2.4H0z" transform="translate(11.8 12.085)"/>
    </symbol>

    <symbol id="icon-users" viewBox="0 0 18 18">
        <path d="M6.215,18A5.457,5.457,0,0,1,9.2,13.218a3.908,3.908,0,0,0,2.9,1.366,3.91,3.91,0,0,0,2.9-1.366A5.523,5.523,0,0,1,18,18Z"/><path d="M8.777,10.229v-.086a3.338,3.338,0,0,1,3.245-3.416,3.338,3.338,0,0,1,3.245,3.416v.086a3.339,3.339,0,0,1-3.245,3.416A3.339,3.339,0,0,1,8.777,10.229Z"/><path d="M7.78,10.14v.09a4.006,4.006,0,0,0,.13,1.04H0A5.465,5.465,0,0,1,2.99,6.49a3.923,3.923,0,0,0,2.9,1.37A3.944,3.944,0,0,0,8.8,6.49c.16.09.32.18.47.28A4.535,4.535,0,0,0,7.78,10.14Z"/><path d="M11.79,11.27H10a2.548,2.548,0,0,1-.22-1.04v-.09a2.474,2.474,0,0,1,.96-1.98A5.316,5.316,0,0,1,11.79,11.27Z"/><path d="M2.563,3.5V3.416A3.338,3.338,0,0,1,5.809,0,3.338,3.338,0,0,1,9.054,3.416V3.5A3.338,3.338,0,0,1,5.809,6.917,3.338,3.338,0,0,1,2.563,3.5Z"/>
    </symbol>

    <symbol id="icon-caret-down" viewBox="0 0 10.03 5.03">
        <path d="M7.2,11l4.4,3.8a.561.561,0,0,0,.9,0L16.9,11a.6.6,0,0,0-.4-1h-9A.575.575,0,0,0,7.2,11Z" transform="translate(-7.011 -10)"/>
    </symbol>

    <symbol id="icon-user" viewBox="0 0 15.75 18">
        <path d="M6940.875,2932.947a14.76,14.76,0,0,1-7.875-1.871,7.677,7.677,0,0,1,4.025-6.608,5.473,5.473,0,0,0,3.85,1.532,5.617,5.617,0,0,0,3.851-1.532,7.406,7.406,0,0,1,4.024,6.608,13.108,13.108,0,0,1-6.733,1.924C6941.647,2933,6941.266,2932.983,6940.875,2932.947Zm-4.376-13.124v-.088a4.39,4.39,0,1,1,8.752,0v.088a4.389,4.389,0,1,1-8.752,0Z" transform="translate(-6933 -2915)"/>
    </symbol>

    <symbol id="icon-gift" viewBox="0 0 10 10">
        <path d="M0,122.224v1.253H4.385V121.6H.626A.627.627,0,0,0,0,122.224Z" transform="translate(0 -119.099)"/><path d="M68.293.94c0-.519-.387-.94-1.249-.94a2.658,2.658,0,0,0-1.874.787A1.23,1.23,0,0,0,63.909.775,2.655,2.655,0,0,0,62.048,0C61.186,0,60.8.421,60.8.94s.387.94,1.249.94h2.5V1.874h0v.005h2.5C67.907,1.879,68.293,1.458,68.293.94Zm-4.863.313H62.048c-.285,0-.624-.055-.624-.313s.34-.313.624-.313a2.035,2.035,0,0,1,1.409.578Zm2.181-.026a2.035,2.035,0,0,1,1.433-.6c.285,0,.624.055.624.313s-.34.313-.624.313H65.626Z" transform="translate(-59.546)"/><path d="M30.4,247.581a.627.627,0,0,0,.626.626h3.132V243.2H30.4Z" transform="translate(-29.773 -238.208)"/><path d="M278.6,121.6h-3.733v1.879h4.359v-1.253A.627.627,0,0,0,278.6,121.6Z" transform="translate(-269.231 -119.099)"/><path d="M274.872,248.208h3.106a.627.627,0,0,0,.626-.626V243.2h-3.733Z" transform="translate(-269.231 -238.208)"/>
    </symbol>

    <symbol id="icon-medal" viewBox="0 0 18 18">
        <path fill="none" d="M0 0H18V18H0z"/><path d="M2.9,11.088A4.913,4.913,0,1,1,7.815,16,4.882,4.882,0,0,1,2.9,11.088Zm1.264.07a3.624,3.624,0,0,0,3.649,3.649,3.745,3.745,0,0,0,3.72-3.72,3.626,3.626,0,0,0-3.72-3.579A3.624,3.624,0,0,0,4.165,11.158Zm.7-.07A2.966,2.966,0,0,1,7.815,8.14a2.878,2.878,0,0,1,2.948,2.948,2.948,2.948,0,0,1-5.9,0Zm3.893-6.6L11.005,0h4.7L12.55,6.316A5.893,5.893,0,0,0,8.76,4.492ZM0,0H4.7L6.737,4l-.281.562a5.846,5.846,0,0,0-3.3,1.754Z" transform="translate(1 1)"/>
    </symbol>

    <symbol id="icon-bookings" viewBox="0 0 18 18">
        <path fill="none" d="M77.9,552.9h18v18h-18Z" opacity=".3" transform="translate(-77.9 -552.9)"/><path d="M1.263,12.75A1.282,1.282,0,0,1,0,11.455V3.1a1.283,1.283,0,0,1,1.263-1.3H2.282V2.65a1.557,1.557,0,0,0,.439,1.086,1.471,1.471,0,0,0,2.12,0A1.552,1.552,0,0,0,5.283,2.65V1.807H8.372V2.65a1.552,1.552,0,0,0,.441,1.086,1.471,1.471,0,0,0,2.12,0,1.554,1.554,0,0,0,.44-1.086V1.807h.864A1.283,1.283,0,0,1,13.5,3.1v8.353a1.283,1.283,0,0,1-1.263,1.295ZM3.254,8.038l1.369,1.4.731.749.691.709,4.2-4.3L8.823,5.136,5.979,8.051,4.61,6.648ZM9.129,2.667V.781a.75.75,0,1,1,1.5,0V2.667a.75.75,0,1,1-1.5,0ZM3.024,2.655V.769a.75.75,0,1,1,1.5,0V2.655a.75.75,0,1,1-1.5,0Z" transform="translate(2.25 2.25)"/>
    </symbol>

    <symbol id="icon-list" viewBox="0 0 18 18">
        <path fill="none" d="M0 0H18V18H0z"/><path fill-rule="evenodd" d="M840.4,612.012h0a1.661,1.661,0,0,1,1.667,1.646h0A1.661,1.661,0,0,1,840.4,615.3h0a1.661,1.661,0,0,1-1.667-1.646h0A1.661,1.661,0,0,1,840.4,612.012Zm0-4.354h0a1.661,1.661,0,0,1,1.667,1.646h0a1.662,1.662,0,0,1-1.667,1.646h0a1.661,1.661,0,0,1-1.667-1.646h0A1.661,1.661,0,0,1,840.4,607.658Zm3.98,9.027h6.02A1.329,1.329,0,0,1,851.733,618h0a1.329,1.329,0,0,1-1.333,1.317h-6.02A1.329,1.329,0,0,1,843.046,618h0A1.329,1.329,0,0,1,844.38,616.685Zm0-8.679h6.02a1.329,1.329,0,0,1,1.333,1.317h0a1.33,1.33,0,0,1-1.333,1.318h-6.02a1.33,1.33,0,0,1-1.333-1.318h0A1.329,1.329,0,0,1,844.38,608.006Zm0,4.334h6.02a1.329,1.329,0,0,1,1.333,1.318h0a1.329,1.329,0,0,1-1.333,1.317h-6.02a1.329,1.329,0,0,1-1.333-1.317h0A1.329,1.329,0,0,1,844.38,612.34Zm-3.981,4.025h0a1.66,1.66,0,0,1,1.666,1.646h0a1.661,1.661,0,0,1-1.666,1.646h0a1.661,1.661,0,0,1-1.666-1.646h0A1.66,1.66,0,0,1,840.4,616.366Z" transform="translate(-836.233 -604.658)"/>
    </symbol>

    <symbol id="icon-settings" viewBox="0 0 18 18">
        <path fill="none" d="M0 0H18V18H0z"/><path d="M7.278,16.274a.343.343,0,0,1-.171-.045l-2.424-1.4a.364.364,0,0,1-.157-.426l.7-1.733a5.145,5.145,0,0,1-.676-1.187l-1.856-.265a.355.355,0,0,1-.3-.345l0-2.8a.353.353,0,0,1,.294-.35l1.86-.265a5.289,5.289,0,0,1,.3-.622,4.878,4.878,0,0,1,.382-.564l-.7-1.744a.352.352,0,0,1,.156-.43l2.42-1.4a.355.355,0,0,1,.448.086L8.71,4.269a5.169,5.169,0,0,1,.7-.047,5.648,5.648,0,0,1,.665.04l1.149-1.472a.369.369,0,0,1,.28-.13.342.342,0,0,1,.172.046L14.1,4.1a.366.366,0,0,1,.158.427l-.7,1.732a5.133,5.133,0,0,1,.676,1.188l1.856.264a.355.355,0,0,1,.3.345l0,2.8a.351.351,0,0,1-.294.349l-1.861.265a5.147,5.147,0,0,1-.3.623,5.065,5.065,0,0,1-.383.563l.7,1.745a.351.351,0,0,1-.156.429l-2.421,1.4a.353.353,0,0,1-.447-.085l-1.156-1.477a5.116,5.116,0,0,1-.7.048,5.624,5.624,0,0,1-.663-.04L7.559,16.144A.371.371,0,0,1,7.278,16.274ZM9.392,6.966a2.5,2.5,0,1,0,2.5,2.5A2.5,2.5,0,0,0,9.392,6.966Z" transform="translate(-.392 -.659)"/>
    </symbol>

    <symbol id="icon-exit" viewBox="0 0 18 18">
        <path fill="none" d="M0 0H18V18H0z"/><path d="M4.312,13.7,1.563,12.131C.481,11.342,0,11.039,0,9.941V1.988A1.941,1.941,0,0,1,1.888,0l0,0L2,0h8a2,2,0,0,1,2,1.988V9.941a2,2,0,0,1-2,1.988H6.611C6.611,13.036,6.193,14,5.286,14A2.056,2.056,0,0,1,4.312,13.7ZM9.9,10.439a.6.6,0,0,0,.6-.6V2.087a.6.6,0,0,0-.6-.6H4.014l.708.5c1.215.831,1.889.89,1.889,1.988v6.463Z" transform="translate(3 2)"/>
    </symbol>

    <symbol id="icon-hotel" viewBox="0 0 16.5 11.25">
        <path d="M5.5,11A2.25,2.25,0,1,0,3.25,8.75,2.247,2.247,0,0,0,5.5,11Zm9-4.5H10A1.5,1.5,0,0,0,8.5,8v3.75h-6v-6a.75.75,0,0,0-1.5,0V15.5a.75.75,0,0,0,1.5,0V14H16v1.5a.75.75,0,0,0,1.5,0v-6A3,3,0,0,0,14.5,6.5Z" transform="translate(-1 -5)"/>
    </symbol>

    <symbol id="icon-country" viewBox="0 0 15 15">
        <path d="M0,7.5A7.506,7.506,0,0,1,8.625.084h0A7.505,7.505,0,0,1,15,7.5q0,.024,0,.048s0,.006,0,.01,0,.025,0,.038v.012q0,.018,0,.036v.009q0,.019,0,.039V7.7q0,.019,0,.037v.009q0,.02,0,.04v.006q0,.022,0,.043v0q-.009.2-.028.4h0A7.5,7.5,0,0,1,0,7.5Zm1.5,0a5.991,5.991,0,0,0,5.25,5.947V12a1.5,1.5,0,0,1-1.5-1.5V9.75L1.658,6.157A6.069,6.069,0,0,0,1.5,7.5Zm3,0H9a.752.752,0,0,1,.75.75V10.5H10.5a1.488,1.488,0,0,1,1.425,1.042,5.978,5.978,0,0,0,1.531-3.315l0,0A5.665,5.665,0,0,0,13.5,7.5a6.117,6.117,0,0,0-.06-.75h.014a5.994,5.994,0,0,0-3.7-4.809V2.25a1.5,1.5,0,0,1-1.5,1.5H6.75v1.5A.752.752,0,0,1,6,6H4.5Z"/>
    </symbol>

    <symbol id="icon-district" viewBox="0 0 13 13">
        <path d="M10.878 13H.999a1 1 0 0 1-1-1v-.527l7.375-1.976 3.5 3.5zm2.121-2.121L7.46 5.341l5.539-1.484v7.021zm-13-1.476V2.121l5.742 5.742L0 9.402zm5.83-5.696L2.121 0h9.878a1 1 0 0 1 1 1v.787l-7.17 1.92z"/>
    </symbol>

    <symbol id="icon-city" viewBox="0 0 13.5 13.93">
        <path d="M12,8.854V4.977a1.475,1.475,0,0,0-.443-1.057L10.275,2.637a.747.747,0,0,0-1.057,0L7.943,3.912A1.5,1.5,0,0,0,7.5,4.977v.878h-3A1.5,1.5,0,0,0,3,7.354v7.5a1.5,1.5,0,0,0,1.5,1.5H15a1.5,1.5,0,0,0,1.5-1.5v-4.5a1.5,1.5,0,0,0-1.5-1.5Zm-6,6H4.5v-1.5H6Zm0-3H4.5v-1.5H6Zm0-3H4.5v-1.5H6Zm4.5,6H9v-1.5h1.5Zm0-3H9v-1.5h1.5Zm0-3H9v-1.5h1.5Zm0-3H9v-1.5h1.5Zm4.5,9H13.5v-1.5H15Zm0-3H13.5v-1.5H15Z" transform="translate(-3 -2.418)"/>
    </symbol>

    <symbol id="icon-place" viewBox="0 0 10 14">
        <path d="M5,14a1.256,1.256,0,0,1-.659-.186,1.122,1.122,0,0,1-.454-.508L.322,6.748A4.128,4.128,0,0,1,0,5,4.838,4.838,0,0,1,1.465,1.465,4.837,4.837,0,0,1,5,0,4.838,4.838,0,0,1,8.535,1.465,4.835,4.835,0,0,1,10,5a4.128,4.128,0,0,1-.322,1.748L6.123,13.307a1.18,1.18,0,0,1-.464.508A1.258,1.258,0,0,1,5,14ZM5,2.5A2.5,2.5,0,1,0,7.5,5,2.5,2.5,0,0,0,5,2.5Z"/>
    </symbol>

    <symbol id="icon-street" viewBox="0 0 14.49 15">
        <path d="M9,0V-3h3V-15h2v2h7v.01l2.49,2.49L21-8.009V-8H14v5h5V0Z" transform="translate(-9 15)"/>
    </symbol>

    <symbol id="icon-car" viewBox="0 0 14 12.444">
        <path d="M15.382,5.786A1.162,1.162,0,0,0,14.278,5H5.722a1.17,1.17,0,0,0-1.1.786L3.086,10.2A1.615,1.615,0,0,0,3,10.709v5.569a1.167,1.167,0,0,0,2.333,0v-.389h9.333v.389a1.167,1.167,0,0,0,2.333,0V10.709a1.652,1.652,0,0,0-.086-.513Zm-9.66,7.77a1.167,1.167,0,1,1,1.167-1.167A1.165,1.165,0,0,1,5.722,13.556Zm8.556,0a1.167,1.167,0,1,1,1.167-1.167A1.165,1.165,0,0,1,14.278,13.556ZM4.556,9.667,5.543,6.7a.788.788,0,0,1,.739-.529h7.436a.788.788,0,0,1,.739.529l.988,2.971Z" transform="translate(-3 -5)"/>
    </symbol>

    <symbol id="icon-airport" viewBox="0 0 14 14">
        <path d="M8718.049-471.938l-1.205-2.178-2.178-1.206a.421.421,0,0,1-.094-.664l.349-.348a.4.4,0,0,1,.354-.119l1.862.268,3.254-3.254-5.156-2.7a.878.878,0,0,1-.215-1.395.888.888,0,0,1,.816-.236l7.217,1.668,3.254-3.254a1.251,1.251,0,0,1,1.773,0,1.251,1.251,0,0,1,0,1.774l-3.254,3.254,1.668,7.217a.894.894,0,0,1-.234.816.877.877,0,0,1-1.4-.213l-2.7-5.158-3.253,3.254.266,1.862a.408.408,0,0,1-.117.356l-.35.348a.408.408,0,0,1-.293.122A.424.424,0,0,1,8718.049-471.938Z" transform="translate(-8714.45 485.723)"/>
    </symbol>

    <symbol id="icon-train" viewBox="0 0 11 14">
        <path d="M11.286,4H9.714C7.255,4.07,5,4.568,5,6.722v7.389a2.335,2.335,0,0,0,2,2.294l-.935.926A.389.389,0,0,0,6.344,18H7.2a.37.37,0,0,0,.275-.117l1.454-1.439h3.143l1.454,1.439A.4.4,0,0,0,13.8,18h.856a.385.385,0,0,0,.275-.661L14,16.413a2.349,2.349,0,0,0,2-2.3V6.722C16,4.568,13.745,4.07,11.286,4ZM10.5,15.278a1.167,1.167,0,1,1,1.179-1.167A1.171,1.171,0,0,1,10.5,15.278ZM14.429,11H6.571V7.111h7.857Z" transform="translate(-5 -4)"/>
    </symbol>

    <symbol id="icon-metro" viewBox="0 0 16 11.2">
        <path d="M23.034,24.34H22.9l-2.86,5.69-2.963-5.739L13.019,34.658H11.971v.833h5.744v-.833h-1.14l1.14-3.24,2.325,4.073,2.234-4.073,1.139,3.24H22.273v.833h5.7v-.833h-.987Z" transform="translate(-11.971 -24.291)"/>
    </symbol>

    <symbol id="icon-monument" viewBox="0 0 14.25 15.557">
        <path d="M3.5,8.405v4.161a1.125,1.125,0,0,0,2.25,0V8.405a1.125,1.125,0,0,0-2.25,0Zm4.5,0v4.161a1.125,1.125,0,0,0,2.25,0V8.405a1.125,1.125,0,0,0-2.25,0ZM3.125,16.814h12a1.125,1.125,0,0,0,0-2.25h-12a1.125,1.125,0,1,0,0,2.25ZM12.5,8.405v4.161a1.125,1.125,0,0,0,2.25,0V8.405a1.125,1.125,0,0,0-2.25,0ZM8.427,1.432,2.5,4.552a.934.934,0,0,0,.435,1.763H15.32a.934.934,0,0,0,.427-1.762L9.823,1.432a1.482,1.482,0,0,0-1.395,0Z" transform="translate(-2 -1.258)"/>
    </symbol>

    <symbol id="icon-call" viewBox="0 0 24 24">
        <path d="M0 0h24v24H0z" fill="none"/><path d="M20.01 15.38a11.443 11.443 0 0 1-3.53-.56.977.977 0 0 0-1.01.24l-1.57 1.97a15.183 15.183 0 0 1-6.89-6.83l1.95-1.66a1.021 1.021 0 0 0 .24-1.02 11.153 11.153 0 0 1-.56-3.53A1 1 0 0 0 7.65 3H4.19C3.65 3 3 3.24 3 3.99A17.152 17.152 0 0 0 20.01 21a1.049 1.049 0 0 0 .99-1.18v-3.45a1 1 0 0 0-.99-.99z"/>
    </symbol>

    <symbol id="icon-mobile" viewBox="0 0 14.992 22.5">
        <path d="M2.346 22.5a2.213 2.213 0 0 1-2.345-2.045V2.046A2.213 2.213 0 0 1 2.346.001l10.289.01a2.217 2.217 0 0 1 2.358 2.035v18.409a2.225 2.225 0 0 1-2.358 2.045zm0-3.341h10.289V3.34H2.346zM4.492 18v-1.5h6V18z"/>
    </symbol>

    <symbol id="icon-login" viewBox="0 0 17 17.98">
        <path d="M15 0H5a2.006 2.006 0 0 0-2 2v3.99h2V1.98h10v14.03H5v-4.02H3V16a1.989 1.989 0 0 0 2 1.98h10A1.989 1.989 0 0 0 17 16V2a2 2 0 0 0-2-2zM8 12.99l4-4-4-4v3H0v2h8z"/>
    </symbol>

    <symbol id="icon-home" viewBox="0 0 15 12.75">
        <path d="M6 12.75v-4.5h3v4.5h3.75v-6H15L7.5 0 0 6.75h2.25v6z"/>
    </symbol>
    <symbol id="icon-heart" viewBox="0 0 471.701 471.701">
        <path  d="M433.601,67.001c-24.7-24.7-57.4-38.2-92.3-38.2s-67.7,13.6-92.4,38.3l-12.9,12.9l-13.1-13.1
		c-24.7-24.7-57.6-38.4-92.5-38.4c-34.8,0-67.6,13.6-92.2,38.2c-24.7,24.7-38.3,57.5-38.2,92.4c0,34.9,13.7,67.6,38.4,92.3
		l187.8,187.8c2.6,2.6,6.1,4,9.5,4c3.4,0,6.9-1.3,9.5-3.9l188.2-187.5c24.7-24.7,38.3-57.5,38.3-92.4
		C471.801,124.501,458.301,91.701,433.601,67.001z M414.401,232.701l-178.7,178l-178.3-178.3c-19.6-19.6-30.4-45.6-30.4-73.3
		s10.7-53.7,30.3-73.2c19.5-19.5,45.5-30.3,73.1-30.3c27.7,0,53.8,10.8,73.4,30.4l22.6,22.6c5.3,5.3,13.8,5.3,19.1,0l22.4-22.4
		c19.6-19.6,45.7-30.4,73.3-30.4c27.6,0,53.6,10.8,73.2,30.3c19.6,19.6,30.3,45.6,30.3,73.3
		C444.801,187.101,434.001,213.101,414.401,232.701z"/>
    </symbol>

    <symbol id="icon-hand" viewBox="0 0 18 16.364">
        <path id="icon_hand" d="M.5,16.864H3.773V7.045H.5Zm18-9a1.641,1.641,0,0,0-1.636-1.636H11.7l.777-3.739.025-.262a1.232,1.232,0,0,0-.36-.867L11.275.5,5.892,5.892a1.6,1.6,0,0,0-.483,1.154v8.182a1.641,1.641,0,0,0,1.636,1.636h7.364a1.625,1.625,0,0,0,1.505-1L18.385,10.1a1.616,1.616,0,0,0,.115-.6Z" transform="translate(-0.5 -0.5)" />
    </symbol>

    <symbol id="icon-info" viewBox="0 0 8 7" fill="none">
        <circle cx="4" cy="3.5" r="3" stroke="currentColor" stroke-width="0.7"/>
        <path d="M 4.28 2.85 L 4.28 4.74 L 4.536 4.753 L 4.536 5.113 L 3.465 5.113 L 3.465 4.771 L 3.614 4.758 C 3.701 4.749 3.744 4.701 3.744 4.614 L 3.744 3.363 C 3.744 3.312 3.735 3.277 3.717 3.259 C 3.702 3.241 3.674 3.232 3.632 3.232 L 3.474 3.223 L 3.474 2.85 L 4.28 2.85 Z M 3.713 2.463 C 3.65 2.4 3.618 2.32 3.618 2.224 C 3.618 2.128 3.65 2.049 3.713 1.986 C 3.776 1.92 3.858 1.887 3.96 1.887 C 4.062 1.887 4.145 1.92 4.208 1.986 C 4.274 2.049 4.307 2.128 4.307 2.224 C 4.307 2.32 4.274 2.4 4.208 2.463 C 4.145 2.523 4.062 2.553 3.96 2.553 C 3.858 2.553 3.776 2.523 3.713 2.463 Z" fill="currentColor"/>
    </symbol>
</svg>