<svg width="174" height="156" viewBox="0 0 174 156" fill="none" xmlns="http://www.w3.org/2000/svg">
<path d="M167.887 33.1494C165.249 27.0538 161.446 21.5301 156.69 16.8874C151.931 12.2308 146.319 8.5303 140.16 5.98708C133.774 3.33946 126.925 1.98425 120.01 2.00014C110.309 2.00014 100.843 4.65156 92.618 9.65979C90.6502 10.8578 88.7808 12.1737 87.0097 13.6075C85.2387 12.1737 83.3693 10.8578 81.4015 9.65979C73.176 4.65156 63.7108 2.00014 54.0094 2.00014C47.0237 2.00014 40.2544 3.33567 33.859 5.98708C27.68 8.5403 22.1111 12.213 17.3293 16.8874C12.5671 21.5248 8.76296 27.0499 6.13242 33.1494C3.39715 39.4931 2 46.2297 2 53.1627C2 59.7028 3.33812 66.518 5.99467 73.4509C8.21831 79.2448 11.4062 85.2546 15.4796 91.3234C21.934 100.927 30.8089 110.944 41.8286 121.098C60.09 137.929 78.1742 149.556 78.9417 150.028L83.6054 153.013C85.6716 154.329 88.3282 154.329 90.3944 153.013L95.0581 150.028C95.8256 149.537 113.89 137.929 132.171 121.098C143.191 110.944 152.066 100.927 158.52 91.3234C162.594 85.2546 165.801 79.2448 168.005 73.4509C170.662 66.518 172 59.7028 172 53.1627C172.019 46.2297 170.622 39.4931 167.887 33.1494ZM87.0097 137.478C87.0097 137.478 16.9554 92.6786 16.9554 53.1627C16.9554 33.1494 33.5441 16.9266 54.0094 16.9266C68.3942 16.9266 80.8701 24.9398 87.0097 36.6453C93.1493 24.9398 105.625 16.9266 120.01 16.9266C140.475 16.9266 157.064 33.1494 157.064 53.1627C157.064 92.6786 87.0097 137.478 87.0097 137.478Z" fill="#999999"/>
<path fill-rule="evenodd" clip-rule="evenodd" d="M5.03057 32.6742C7.72322 26.4307 11.6171 20.7753 16.4913 16.0284C21.3824 11.2475 27.08 7.48996 33.4001 4.87831C39.943 2.16585 46.8684 0.800141 54.0095 0.800141C63.9298 0.800141 73.6111 3.51153 82.0255 8.63481C83.7612 9.69152 85.4227 10.8383 87.0098 12.075C88.5969 10.8383 90.2584 9.69152 91.994 8.63483C100.408 3.51177 110.089 0.800389 120.009 0.800141C127.081 0.784079 134.087 2.17014 140.619 4.87794C146.919 7.47974 152.66 11.2656 157.529 16.0296C162.397 20.7811 166.289 26.4343 168.988 32.6728L167.887 33.1494C165.249 27.0538 161.446 21.5301 156.69 16.8874C151.931 12.2308 146.319 8.5303 140.16 5.98708C133.774 3.33946 126.925 1.98425 120.01 2.00014C110.309 2.00014 100.843 4.65156 92.618 9.65979C90.6502 10.8578 88.7808 12.1737 87.0097 13.6075C85.2387 12.1737 83.3693 10.8578 81.4015 9.65979C73.176 4.65156 63.7108 2.00014 54.0094 2.00014C47.0237 2.00014 40.2544 3.33567 33.859 5.98708C27.68 8.5403 22.1111 12.213 17.3293 16.8874C12.5671 21.5248 8.76296 27.0499 6.13242 33.1494C3.39715 39.4931 2 46.2297 2 53.1627C2 59.7028 3.33812 66.518 5.99467 73.4509C8.21831 79.2448 11.4062 85.2546 15.4796 91.3234C21.934 100.927 30.8089 110.944 41.8286 121.098C60.09 137.929 78.1742 149.556 78.9417 150.028L83.6054 153.013C85.6716 154.329 88.3282 154.329 90.3944 153.013L95.0581 150.028C95.8256 149.537 113.89 137.929 132.171 121.098C143.191 110.944 152.066 100.927 158.52 91.3234C162.594 85.2546 165.801 79.2448 168.005 73.4509C170.662 66.518 172 59.7028 172 53.1627C172.019 46.2297 170.622 39.4931 167.887 33.1494L168.989 32.6743C171.789 39.1676 173.22 46.0669 173.2 53.1661C173.199 59.8696 171.828 66.8288 169.126 73.8798C166.883 79.7741 163.63 85.8642 159.517 91.9922C152.997 101.694 144.054 111.781 132.984 121.98C114.628 138.881 96.4961 150.532 95.7049 151.039L91.039 154.025C88.5796 155.592 85.4203 155.592 82.9609 154.025L82.9585 154.024L78.3137 151.05C78.3104 151.048 78.3069 151.046 78.303 151.044C77.3547 150.457 59.2755 138.811 41.0155 121.98C29.9464 111.781 21.0035 101.694 14.4836 91.9928C10.3686 85.8619 7.13528 79.7718 4.8744 73.8809C2.17211 66.8286 0.800049 59.8675 0.800049 53.1627C0.800049 46.0658 2.2308 39.1675 5.03057 32.6742ZM87.0098 39.2288L85.9471 37.2027C80.0115 25.8861 67.9411 18.1266 54.0095 18.1266C34.1815 18.1266 18.1555 33.8372 18.1555 53.1627C18.1555 62.7004 22.3908 72.672 28.8969 82.3376C35.3928 91.9878 44.0763 101.221 52.7958 109.256C61.5103 117.287 70.2299 124.093 76.7735 128.893C80.0443 131.292 82.769 133.188 84.6743 134.483C85.6268 135.131 86.3744 135.628 86.8829 135.963C86.927 135.992 86.9693 136.02 87.0098 136.046C87.0503 136.02 87.0926 135.992 87.1367 135.963C87.6451 135.628 88.3927 135.131 89.3453 134.483C91.2506 133.188 93.9752 131.292 97.246 128.893C103.79 124.093 112.509 117.287 121.224 109.256C129.943 101.221 138.627 91.9878 145.123 82.3376C151.629 72.672 155.864 62.7004 155.864 53.1627C155.864 33.8372 139.838 18.1266 120.01 18.1266C106.078 18.1266 94.0081 25.8861 88.0725 37.2027L87.0098 39.2288ZM86.3209 35.3933C86.5586 35.8057 86.7883 36.2231 87.0097 36.6453C87.2312 36.2231 87.4609 35.8057 87.6987 35.3933C94.0519 24.3722 106.144 16.9266 120.01 16.9266C140.475 16.9266 157.064 33.1494 157.064 53.1627C157.064 92.6786 87.0097 137.478 87.0097 137.478C87.0097 137.478 16.9554 92.6786 16.9554 53.1627C16.9554 33.1494 33.5441 16.9266 54.0094 16.9266C67.8753 16.9266 79.9677 24.3722 86.3209 35.3933Z" fill="#999999"/>
</svg>
