<?xml version="1.0" encoding="iso-8859-1"?>
<!-- Generator: Adobe Illustrator 21.1.0, SVG Export Plug-In . SVG Version: 6.00 Build 0)  -->
<svg width="20" height="20" xmlns="http://www.w3.org/2000/svg" xmlns:xlink="http://www.w3.org/1999/xlink" version="1.1" id="Layer_1" x="0px" y="0px" viewBox="0 0 64 64" style="enable-background:new 0 0 64 64;" xml:space="preserve">
<linearGradient id="SVGID_1__44767" gradientUnits="userSpaceOnUse" x1="39" y1="13.5001" x2="39" y2="20.2512" spreadMethod="reflect">
	<stop offset="0" style="stop-color:#6DC7FF"/>
	<stop offset="1" style="stop-color:#E6ABFF"/>
</linearGradient>
<circle style="fill:url(#SVGID_1__44767);" cx="39" cy="17" r="3"/>
<linearGradient id="SVGID_2__44767" gradientUnits="userSpaceOnUse" x1="22" y1="10.0625" x2="22" y2="54.0625" spreadMethod="reflect">
	<stop offset="0" style="stop-color:#1A6DFF"/>
	<stop offset="1" style="stop-color:#C822FF"/>
</linearGradient>
<rect x="19" y="42" style="fill:url(#SVGID_2__44767);" width="6" height="2"/>
<linearGradient id="SVGID_3__44767" gradientUnits="userSpaceOnUse" x1="30" y1="10.0625" x2="30" y2="54.0625" spreadMethod="reflect">
	<stop offset="0" style="stop-color:#1A6DFF"/>
	<stop offset="1" style="stop-color:#C822FF"/>
</linearGradient>
<rect x="27" y="42" style="fill:url(#SVGID_3__44767);" width="6" height="2"/>
<linearGradient id="SVGID_4__44767" gradientUnits="userSpaceOnUse" x1="14" y1="10.0625" x2="14" y2="54.0627" spreadMethod="reflect">
	<stop offset="0" style="stop-color:#1A6DFF"/>
	<stop offset="1" style="stop-color:#C822FF"/>
</linearGradient>
<path style="fill:url(#SVGID_4__44767);" d="M13,38h-2v4c0,1.103,0.897,2,2,2h4v-2h-4V38z"/>
<linearGradient id="SVGID_5__44767" gradientUnits="userSpaceOnUse" x1="12" y1="10.0625" x2="12" y2="54.0627" spreadMethod="reflect">
	<stop offset="0" style="stop-color:#1A6DFF"/>
	<stop offset="1" style="stop-color:#C822FF"/>
</linearGradient>
<rect x="11" y="30" style="fill:url(#SVGID_5__44767);" width="2" height="6"/>
<linearGradient id="SVGID_6__44767" gradientUnits="userSpaceOnUse" x1="14" y1="10.0625" x2="14" y2="54.0627" spreadMethod="reflect">
	<stop offset="0" style="stop-color:#1A6DFF"/>
	<stop offset="1" style="stop-color:#C822FF"/>
</linearGradient>
<path style="fill:url(#SVGID_6__44767);" d="M11,24v4h2v-4h4v-2h-4C11.897,22,11,22.897,11,24z"/>
<linearGradient id="SVGID_7__44767" gradientUnits="userSpaceOnUse" x1="39" y1="10.0625" x2="39" y2="54.0627" spreadMethod="reflect">
	<stop offset="0" style="stop-color:#1A6DFF"/>
	<stop offset="1" style="stop-color:#C822FF"/>
</linearGradient>
<path style="fill:url(#SVGID_7__44767);" d="M39,26c4.963,0,9-4.037,9-9s-4.037-9-9-9s-9,4.037-9,9S34.037,26,39,26z M39,10  c3.859,0,7,3.141,7,7s-3.141,7-7,7s-7-3.141-7-7S35.141,10,39,10z"/>
<linearGradient id="SVGID_8__44767" gradientUnits="userSpaceOnUse" x1="39" y1="10.0625" x2="39" y2="54.0627" spreadMethod="reflect">
	<stop offset="0" style="stop-color:#1A6DFF"/>
	<stop offset="1" style="stop-color:#C822FF"/>
</linearGradient>
<path style="fill:url(#SVGID_8__44767);" d="M40,37h-2c0-1.082-1.707-2.735-3.513-4.487C30.905,29.041,26,24.285,26,17  c0-7.168,5.832-13,13-13s13,5.832,13,13c0,7.285-4.905,12.041-8.487,15.513C41.707,34.265,40,35.918,40,37z M39,6  c-6.065,0-11,4.935-11,11c0,6.438,4.369,10.674,7.879,14.077c1.257,1.218,2.369,2.297,3.121,3.339  c0.751-1.042,1.864-2.121,3.121-3.339C45.631,27.674,50,23.438,50,17C50,10.935,45.065,6,39,6z"/>
<linearGradient id="SVGID_9__44767" gradientUnits="userSpaceOnUse" x1="39" y1="10.0625" x2="39" y2="54.0627" spreadMethod="reflect">
	<stop offset="0" style="stop-color:#1A6DFF"/>
	<stop offset="1" style="stop-color:#C822FF"/>
</linearGradient>
<path style="fill:url(#SVGID_9__44767);" d="M40,41v-5h-2v5c0,0.552-0.448,1-1,1h-2v2h8v-2h-2C40.448,42,40,41.552,40,41z"/>
<linearGradient id="SVGID_10__44767" gradientUnits="userSpaceOnUse" x1="32" y1="10.0625" x2="32" y2="54.0625" spreadMethod="reflect">
	<stop offset="0" style="stop-color:#1A6DFF"/>
	<stop offset="1" style="stop-color:#C822FF"/>
</linearGradient>
<path style="fill:url(#SVGID_10__44767);" d="M37.006,54c-1.005,0-2.018-0.298-2.881-0.899l-6.534-3.894  c-0.405-0.278-0.867-0.278-1.211-0.038l-6.63,3.956c-1.659,1.158-3.902,1.17-5.615-0.023l-6.777-4.09C6.501,48.417,6,47.475,6,46.5  V12c0-0.734,0.384-1.432,1.032-1.771C7.7,9.88,8.502,9.933,9.125,10.367l7.245,4.389c0.4,0.275,0.863,0.275,1.206,0.035l6.62-3.932  c1.302-0.911,3.048-1.116,4.613-0.51l-0.723,1.865c-0.942-0.366-1.992-0.243-2.809,0.326l-6.62,3.932  c-0.967,0.675-2.348,0.675-3.375-0.039L8,12v34.5c0,0.322,0.181,0.649,0.447,0.835l6.716,4.078c1.084,0.752,2.469,0.752,3.5,0.035  l6.63-3.957c0.974-0.68,2.354-0.679,3.382,0.035l6.534,3.894c1.09,0.756,2.474,0.756,3.505,0.039l6.656-3.954  c0.972-0.679,2.353-0.68,3.381,0.036L56,52V17.375c0-0.327-0.159-0.632-0.424-0.817l-6.134-3.592l1.012-1.726l6.199,3.634  C57.521,15.475,58,16.394,58,17.375V52c0,0.735-0.404,1.402-1.054,1.741c-0.667,0.348-1.47,0.295-2.091-0.138l-2.252-1.39  l-4.94-2.994c-0.399-0.275-0.862-0.275-1.207-0.036L39.8,53.137C38.977,53.71,37.996,54,37.006,54z"/>
<linearGradient id="SVGID_11__44767" gradientUnits="userSpaceOnUse" x1="22" y1="10.0625" x2="22" y2="54.0625" spreadMethod="reflect">
	<stop offset="0" style="stop-color:#1A6DFF"/>
	<stop offset="1" style="stop-color:#C822FF"/>
</linearGradient>
<rect x="19" y="22" style="fill:url(#SVGID_11__44767);" width="6" height="2"/>
</svg>
